<svg xmlns="http://www.w3.org/2000/svg"><symbol id="logo" viewBox="0 0 45 59"><title>mark</title><g fill="none" fill-rule="evenodd"><path d="M8.792 2.227C6.87 3.34 5.087 4.878 3.899 6.445c-1.9 2.503-3.16 5.864-3.457 9.22-.185 2.08-.008 4.15.525 6.152.601 2.258 1.657 4.423 3.137 6.436.662.9.024 3.007-1.586 5.244C1.402 35.047.646 36.843.27 38.836c-.36 1.908-.35 3.888.03 5.884a17.144 17.144 0 0 0 2.213 5.732 17.501 17.501 0 0 0 4.4 4.862 16.794 16.794 0 0 0 10.165 3.42c.763 0 1.534-.053 2.29-.156 2.069-.283 4.103-1.026 6.048-2.21 1.662-1.01 3.308-2.377 4.893-4.06 3.03-3.219 5.267-6.815 6.651-10.688 1.302-3.643 1.85-7.528 1.627-11.547-.208-3.749-1.083-7.59-2.602-11.418-1.438-3.625-3.432-7.188-5.925-10.59-2.007-2.737-4.235-4.806-6.62-6.147C21.239.68 18.905.052 16.502.052c-2.592 0-5.258.752-7.71 2.175zm-2.41 29.828c-.442 1.07-1.062 2.103-1.703 2.992-3.595 4.994-2.385 13.429 3.845 18.15a14.12 14.12 0 0 0 8.555 2.88c.646 0 1.29-.045 1.93-.132 3.59-.49 6.682-2.611 9.36-5.457 11.503-12.22 8.81-28.211-.457-40.853-3.792-5.173-7.815-6.926-11.41-6.926-4.75 0-8.75 3.06-10.48 5.34-2.66 3.504-5.225 11.217.228 18.631.08.11.154.22.22.334.03.03.06.06.087.093.862 1.017 1.473 1.936 1.946 3.021.561 1.286.884 2.737.967 4.464a1.33 1.33 0 0 1-1.266 1.39A1.33 1.33 0 0 1 6.81 34.72c-.048-1.017-.193-1.89-.429-2.664z" fill="#15141E"/><path d="M7.893 40.08a8.642 8.642 0 0 0 1.349 6.51 1.327 1.327 0 0 1-.355 1.846 1.333 1.333 0 0 1-1.849-.354 11.295 11.295 0 0 1-1.76-8.503 1.331 1.331 0 0 1 2.615.5zm2.782-29.506a7.683 7.683 0 0 0-2.005 5.652 1.33 1.33 0 1 1-2.658.155 10.337 10.337 0 0 1 2.689-7.59 10.68 10.68 0 0 1 7.333-3.496c1.72-.1 3.416.203 4.966.884.672.296.978 1.08.681 1.752a1.332 1.332 0 0 1-1.755.68 8.086 8.086 0 0 0-3.736-.663 8.015 8.015 0 0 0-5.515 2.626z" fill="#FFF" fill-rule="nonzero"/><path d="M43.491 20.64l-3.061.725a1.328 1.328 0 1 1-.615-2.585l3.062-.726a1.328 1.328 0 1 1 .615 2.585zm-.864 5.066l-2.121-.148a1.33 1.33 0 1 1 .185-2.651l2.122.148a1.33 1.33 0 1 1-.186 2.65zM38.02 15.255l1.792-1.143a1.333 1.333 0 0 1 1.838.404c.396.618.215 1.44-.404 1.835l-1.792 1.143a1.333 1.333 0 0 1-1.839-.404 1.327 1.327 0 0 1 .405-1.835zM29.518 23.133c-1.184-1.049-2.858-.78-3.525.415a1.295 1.295 0 0 1-1.76.499 1.29 1.29 0 0 1-.5-1.756c1.479-2.646 5.09-3.226 7.502-1.09a1.29 1.29 0 0 1 .109 1.823 1.295 1.295 0 0 1-1.826.109zm-2.348 11.98c1.167-1.007 1.813-2.233 1.815-3.466a1.382 1.382 0 0 1 1.385-1.379c.764.002 1.382.62 1.381 1.383-.003 2.094-1.033 4.05-2.77 5.55a10.746 10.746 0 0 1-5.848 2.507c-4.257.426-8.159-2.128-9.735-6.067a1.38 1.38 0 0 1 .772-1.794 1.384 1.384 0 0 1 1.797.77c1.133 2.83 3.901 4.643 6.89 4.343a7.978 7.978 0 0 0 4.313-1.847zM14.407 26.26a2.196 2.196 0 0 1-2.196-2.191 2.196 2.196 0 0 1 4.39 0 2.196 2.196 0 0 1-2.194 2.19z" fill="#15141E" fill-rule="nonzero"/></g></symbol></svg>